<svg width="350" height="101" viewBox="0 0 350 101" fill="none" xmlns="http://www.w3.org/2000/svg">
<g clip-path="url(#clip0_40_2566)">
<path d="M11.2474 38.3379C12.0078 37.4863 12.9984 36.8741 14.0991 36.5757C16.2234 36.5302 18.3582 36.4184 20.5035 36.24C22.6401 36.0639 24.7657 35.7733 26.8713 35.3694C28.9638 34.9693 31.0253 34.4207 33.0402 33.7279C35.067 33.0307 37.0324 32.1659 38.9162 31.1423C39.5755 30.7857 40.2819 30.3766 41.0353 29.9046C41.7369 29.483 42.3471 28.9248 42.83 28.2631H17.6152C17.4798 28.2425 17.3467 28.2092 17.2175 28.1634L16.4536 27.9274L15.5589 27.6652C15.3091 27.5977 15.0657 27.5082 14.8316 27.3977C13.411 26.9066 12.2111 25.9251 11.4463 24.6286C10.6389 23.3892 10.2014 21.9445 10.1852 20.4644C10.1754 18.7264 10.5847 17.0117 11.3782 15.4664C12.1998 13.8779 13.2763 12.4356 14.5647 11.1973C15.9433 9.87146 17.4689 8.70831 19.1117 7.73066C20.7975 6.7212 22.5451 5.81911 24.344 5.02972C26.0532 4.27516 27.7996 3.60824 29.5764 3.03155C31.2961 2.47913 32.8658 2.04557 34.2856 1.7309C36.527 1.2034 38.7986 0.814566 41.0876 0.566607C43.3904 0.31962 45.7047 0.19708 48.0205 0.199498H51.3379C52.3654 0.531202 53.2601 1.18358 53.8913 2.06131C54.5258 2.92943 54.8635 3.97981 54.854 5.05594C54.854 6.47197 54.5296 7.52612 53.8913 8.20267C53.2253 8.90353 52.3742 9.40011 51.4373 9.63444C50.3855 9.90552 49.3052 10.0499 48.2194 10.0645C47.0682 10.0855 46.0061 10.1414 45.0329 10.2323C41.3637 10.5542 37.726 11.1698 34.1547 12.0731C30.572 12.9703 27.1785 14.5031 24.1348 16.5992C23.8007 16.7919 23.4791 17.0056 23.172 17.239C22.7935 17.4776 22.4848 17.8124 22.2772 18.2093H46.5607C47.6202 18.2101 48.6686 18.426 49.6426 18.8439C50.6165 19.2556 51.5135 19.8302 52.2954 20.5431C53.0676 21.2523 53.6995 22.101 54.1581 23.0448C54.6177 23.9888 54.8558 25.0257 54.854 26.0761C54.8667 27.68 54.5085 29.2651 53.8075 30.707C53.0798 32.1792 52.1284 33.5291 50.9873 34.7086C49.7826 35.9581 48.4476 37.0746 47.0055 38.0389C45.5289 39.0385 43.9891 39.9407 42.3957 40.7399C40.8582 41.5178 39.2731 42.1975 37.65 42.7747C36.0803 43.3307 34.6536 43.7852 33.3699 44.1383C27.8822 45.6556 22.2142 46.4178 16.5216 46.404H14.1305C13.0281 46.1095 12.0364 45.4967 11.2788 44.6418C10.5565 43.7572 10.184 42.6372 10.2323 41.4951C10.1726 40.3535 10.5339 39.2297 11.2474 38.3379Z" fill="white"/>
<path d="M88.2731 17.5536C87.9644 17.3333 87.7865 17.1969 87.7499 17.155C84.8837 15.1127 81.7018 13.557 78.3316 12.5503C74.9885 11.5342 71.5562 10.8405 68.0814 10.4787H66.2448C66.2424 11.9218 65.7518 13.3214 64.853 14.4488C64.4039 14.9928 63.834 15.4241 63.189 15.7082C62.544 15.9923 61.8417 16.1214 61.138 16.0851C60.5749 16.0798 60.0158 15.9896 59.4794 15.8176C58.9155 15.6389 58.3851 15.3678 57.9097 15.0152C57.4391 14.6805 57.0332 14.2629 56.7115 13.7828C56.3978 13.2959 56.2373 12.7258 56.251 12.1465V4.159C56.2432 3.56061 56.4027 2.97198 56.7115 2.45977C57.025 1.94251 57.444 1.49748 57.9411 1.15387C58.4432 0.803082 58.9906 0.522539 59.5683 0.31999C60.1005 0.127622 60.6613 0.0265553 61.227 0.0210467C64.2311 0.0175748 67.2328 0.192701 70.2162 0.545502C73.2078 0.900965 76.1688 1.47948 79.0746 2.27621C81.3858 2.91957 83.6571 3.69885 85.8767 4.61003C88.3693 5.60593 90.7508 6.861 92.9823 8.35464C95.1293 9.77876 97.025 11.5512 98.5914 13.5992C100.1 15.578 100.905 18.0056 100.878 20.4958C100.905 22.0669 100.389 23.5991 99.4181 24.833C98.4543 26.0692 97.1688 27.0147 95.7031 27.5654L94.4421 27.964C94.1181 28.0788 93.7857 28.1682 93.448 28.2315H66.114V42.4495C66.1114 43.0164 65.9281 43.5677 65.5908 44.0228C65.2444 44.5034 64.8179 44.9203 64.3298 45.2553C63.8289 45.6081 63.2812 45.8888 62.7025 46.0892C62.1992 46.2744 61.6689 46.3754 61.1328 46.3881C60.5995 46.3794 60.0704 46.291 59.5631 46.1259C58.9903 45.9494 58.4509 45.6782 57.9672 45.3235C57.4949 44.9821 57.0814 44.5658 56.7429 44.091C56.4071 43.6147 56.2329 43.043 56.2458 42.4599V22.195C56.2591 21.7076 56.4076 21.2336 56.6748 20.8262C56.968 20.3505 57.3196 19.9135 57.7213 19.5255C58.1252 19.1388 58.5836 18.8137 59.0817 18.5605C59.511 18.3318 59.9875 18.2061 60.4735 18.1934H88.8696C88.7325 17.9298 88.5263 17.7086 88.2731 17.5536Z" fill="white"/>
<path d="M99.9467 32.1805C100.646 29.286 101.647 26.4734 102.934 23.7892C104.222 21.1143 105.778 18.5785 107.581 16.2214C109.419 13.816 111.46 11.5736 113.682 9.51882C115.065 8.23094 116.552 7.06085 118.129 6.0207C119.76 4.93267 121.467 3.96343 123.236 3.12047C124.982 2.28032 126.804 1.60947 128.678 1.11706C130.496 0.633577 132.369 0.386789 134.25 0.382813C136.361 0.336706 138.457 0.75751 140.388 1.61528C142.132 2.43693 143.492 3.95959 144.469 6.18328C144.605 6.50811 144.715 6.84302 144.799 7.18499C144.904 7.52605 144.971 7.8779 144.997 8.2339V42.4441C145.001 43.0315 144.818 43.6047 144.474 44.0804C144.134 44.5554 143.719 44.9717 143.245 45.3129C142.769 45.6654 142.239 45.9366 141.675 46.1153C141.167 46.2801 140.638 46.3684 140.105 46.3775C139.569 46.3642 139.039 46.2632 138.535 46.0786C137.974 45.8803 137.445 45.5993 136.966 45.2447C136.488 44.897 136.064 44.4819 135.705 44.0122C135.358 43.562 135.174 43.0075 135.182 42.4388V28.2838H123.969C123.712 28.2194 123.465 28.1187 123.236 27.9849L122.509 27.6178C121.751 27.2177 121.136 26.5907 120.751 25.8241C120.407 25.0507 120.237 24.211 120.254 23.3644C120.26 22.7881 120.35 22.2157 120.52 21.6652C120.693 21.0711 120.962 20.5095 121.316 20.0027C121.661 19.5017 122.1 19.0725 122.608 18.7387C123.132 18.4016 123.744 18.2282 124.366 18.2405H135.045V10.6621C134.915 10.6621 134.616 10.6621 134.151 10.5939C133.685 10.5258 133.387 10.5258 133.256 10.5258C131.366 10.7752 129.535 11.3613 127.851 12.2565C126.179 13.1162 124.57 14.0941 123.037 15.1829C120.701 16.8449 118.553 18.7584 116.633 20.889C114.93 22.8217 113.493 24.9735 112.358 27.2874C111.232 29.6084 110.385 32.0556 109.836 34.5773C109.242 37.3106 108.864 40.0866 108.706 42.8794C108.438 43.9467 107.79 44.8792 106.885 45.5017C105.997 46.1138 104.943 46.4379 103.866 46.43C103.19 46.4593 102.517 46.3402 101.892 46.0811C101.268 45.822 100.707 45.4291 100.25 44.93C99.3436 43.9265 98.8566 42.6122 98.8898 41.2588C98.8772 38.2012 99.2321 35.1531 99.9467 32.1805Z" fill="white"/>
<path d="M147.582 28.0113C148.382 25.6077 149.405 23.2846 150.638 21.0728C152.364 18.0049 154.474 15.1709 156.917 12.6395C159.34 10.1076 162.07 7.88937 165.043 6.03664C168.003 4.1908 171.192 2.74314 174.529 1.73087C177.885 0.712793 181.373 0.196772 184.879 0.199473H187.537C188.592 0.474873 189.51 1.12544 190.122 2.02982C190.736 2.91823 191.061 3.97512 191.053 5.05591C191.082 5.8744 190.902 6.68669 190.53 7.41596C190.1 8.14545 189.537 8.78765 188.871 9.30925C188.488 9.5845 188.045 9.76428 187.579 9.83371C187.055 9.92286 186.637 9.9858 186.286 10.033C184.514 10.1659 182.822 10.3319 181.211 10.5312C179.527 10.7506 177.87 11.1425 176.266 11.7008C173.84 12.6246 171.544 13.8585 169.433 15.372C167.081 17.0042 164.931 18.9109 163.028 21.0518C161.14 23.1628 159.535 25.5111 158.251 28.0375C157.04 30.3473 156.392 32.9122 156.362 35.5215C156.362 35.6107 156.362 35.8362 156.43 36.1876L156.629 36.5232H187.212C187.761 36.529 188.294 36.7029 188.74 37.0215C189.233 37.3633 189.66 37.7915 190.001 38.2854C190.35 38.7888 190.628 39.3376 190.828 39.9164C191.013 40.421 191.114 40.9525 191.126 41.4898C191.115 42.0241 191.027 42.5541 190.865 43.0632C190.686 43.6282 190.415 44.1597 190.064 44.6365C189.719 45.117 189.292 45.5325 188.803 45.8638C188.343 46.1874 187.795 46.3614 187.233 46.362H154.395C153.9 46.2602 153.413 46.1271 152.935 45.9634C151.817 45.6916 150.781 45.1517 149.916 44.39C149.101 43.6639 148.426 42.7948 147.923 41.8255C147.41 40.8313 147.031 39.7731 146.798 38.6787C146.554 37.5836 146.432 36.4651 146.431 35.3432C146.422 32.8533 146.811 30.3781 147.582 28.0113Z" fill="white"/>
<path d="M193.659 28.0113C194.475 25.6199 195.484 23.2993 196.678 21.0728C198.405 18.0061 200.515 15.1723 202.957 12.6395C205.382 10.1075 208.113 7.88928 211.088 6.03665C214.047 4.1901 217.237 2.7424 220.574 1.73088C223.93 0.712421 227.417 0.196392 230.924 0.199477H233.576C234.111 0.308299 234.619 0.524174 235.068 0.834175C235.518 1.14418 235.9 1.54193 236.193 2.0036C236.783 2.91683 237.094 3.98335 237.087 5.07165C237.087 6.54012 236.779 7.61876 236.161 8.30754C235.525 9.00797 234.691 9.49811 233.77 9.71308C232.741 9.96345 231.689 10.1076 230.631 10.1431C229.578 10.1819 228.529 10.2941 227.491 10.4788C225.137 10.9573 222.828 11.6381 220.59 12.5137C218.339 13.3945 216.228 14.5975 214.321 16.0852C214.054 16.3107 213.646 16.6097 213.092 17.0187C212.618 17.3462 212.204 17.7524 211.867 18.2197H226.926C227.526 18.2153 228.114 18.3886 228.616 18.718C229.126 19.0513 229.567 19.4805 229.914 19.9819C230.264 20.4911 230.532 21.0521 230.709 21.6444C230.88 22.1949 230.97 22.7673 230.976 23.3437C230.97 23.8789 230.88 24.4098 230.709 24.917C230.524 25.4725 230.267 26.0014 229.945 26.4904C229.635 26.9769 229.242 27.4048 228.784 27.7543C228.345 28.0846 227.81 28.2598 227.261 28.2526H204.301L203.705 29.6581C203.351 30.5909 203.053 31.5435 202.81 32.5111C202.566 33.4851 202.443 34.4857 202.444 35.49V36.1509L202.643 36.4865H233.231C233.778 36.4931 234.309 36.6669 234.754 36.9847C235.247 37.3266 235.674 37.7548 236.015 38.2487C236.367 38.7507 236.647 39.2997 236.847 39.8797C237.031 40.3842 237.132 40.9158 237.145 41.4531C237.134 41.9879 237.044 42.5181 236.878 43.0264C236.699 43.5903 236.431 44.1216 236.083 44.5998C235.737 45.0791 235.31 45.4943 234.822 45.827C234.362 46.1498 233.814 46.3236 233.252 46.3253H200.607C200.168 46.3121 199.732 46.2343 199.315 46.0945C198.871 45.9645 198.439 45.7979 198.022 45.5963C197.043 45.1859 196.153 44.5853 195.406 43.8289C194.705 43.1028 194.124 42.2688 193.685 41.3587C193.238 40.4385 192.914 39.4634 192.722 38.4585C192.521 37.4217 192.422 36.3678 192.424 35.3117C192.436 32.8271 192.853 30.3611 193.659 28.0113Z" fill="white"/>
<path d="M205.427 91.9582C206.187 91.1066 207.178 90.4944 208.278 90.196C210.403 90.1541 212.532 90.0387 214.683 89.8604C216.819 89.6839 218.945 89.3933 221.05 88.9898C223.143 88.5909 225.205 88.0423 227.219 87.3482C229.244 86.6516 231.207 85.7885 233.09 84.7679C233.753 84.4183 234.461 84.0039 235.215 83.5249C235.917 83.1063 236.526 82.5476 237.004 81.8834H211.794C211.659 81.8629 211.526 81.8295 211.397 81.7838L210.633 81.553L209.738 81.2855C209.487 81.2179 209.241 81.1284 209.006 81.0181C207.588 80.5272 206.39 79.5477 205.625 78.2542C204.819 77.0125 204.381 75.5664 204.364 74.0848C204.355 72.3468 204.764 70.6323 205.557 69.0867C206.376 67.4979 207.453 66.0569 208.744 64.8229C210.119 63.4955 211.643 62.3322 213.286 61.3562C214.97 60.3449 216.718 59.4427 218.518 58.6553C220.227 57.8992 221.973 57.2322 223.75 56.6571C225.494 56.1012 227.064 55.6676 228.46 55.3565C230.7 54.825 232.972 54.4344 235.262 54.1869C237.565 53.9427 239.879 53.8202 242.194 53.8198H245.512C246.54 54.1502 247.435 54.8029 248.065 55.6816C248.7 56.5586 249.033 57.6191 249.012 58.7025C249.012 60.1238 248.693 61.1727 248.05 61.8492C247.385 62.5522 246.533 63.0491 245.596 63.281C244.544 63.5553 243.464 63.6997 242.378 63.711C241.227 63.711 240.17 63.7897 239.196 63.8789C235.525 64.2 231.885 64.8173 228.313 65.7249C224.731 66.6154 221.339 68.145 218.298 70.2405C217.964 70.4307 217.642 70.6427 217.335 70.8751C216.956 71.1141 216.647 71.451 216.441 71.8506H240.719C241.78 71.8501 242.83 72.0641 243.806 72.4799C244.781 72.8917 245.679 73.4682 246.459 74.1844C247.231 74.8908 247.861 75.738 248.316 76.6808C248.778 77.624 249.016 78.6615 249.012 79.7122C249.028 81.3181 248.669 82.9055 247.966 84.3483C247.239 85.8179 246.289 87.1659 245.151 88.3447C243.945 89.5944 242.61 90.7125 241.169 91.6802C239.691 92.6762 238.151 93.5765 236.559 94.3759C235.021 95.153 233.436 95.8326 231.813 96.4108C230.244 96.9667 228.817 97.423 227.533 97.7796C222.037 99.2969 216.36 100.057 210.659 100.04H208.273C207.172 99.7416 206.182 99.1295 205.421 98.2779C204.697 97.3944 204.324 96.2736 204.375 95.1311C204.321 93.9793 204.695 92.8484 205.427 91.9582Z" fill="white"/>
<path d="M258.001 54.428C258.857 54.8567 259.516 55.5982 259.843 56.4996C260.023 56.8376 260.179 57.1881 260.309 57.5485V71.819H280.542V57.9524C280.563 57.5146 280.689 57.0884 280.909 56.7094C281.161 56.2229 281.461 55.7627 281.803 55.3353C282.133 54.9102 282.525 54.5372 282.965 54.2287C283.299 53.9694 283.704 53.8176 284.127 53.7934H286.91C287.339 53.8048 287.755 53.9455 288.103 54.1973C288.516 54.4743 288.895 54.7981 289.233 55.1623C289.573 55.5226 289.863 55.9264 290.097 56.3633C290.298 56.7194 290.411 57.1187 290.426 57.5276V96.0802C290.436 96.6697 290.274 97.2493 289.961 97.748C289.645 98.2418 289.228 98.6621 288.736 98.9805C288.232 99.3099 287.684 99.5676 287.109 99.7462C286.573 99.9185 286.014 100.009 285.45 100.014C284.434 100.057 283.435 99.7394 282.63 99.1168C281.853 98.4512 281.231 97.6222 280.809 96.6886C280.706 96.4492 280.617 96.204 280.542 95.9544V81.9934H260.309V96.29C260.243 96.5572 260.143 96.8147 260.011 97.0557C259.863 97.3695 259.688 97.6696 259.487 97.9525C258.996 98.6264 258.345 99.1671 257.593 99.5259C256.85 99.8479 256.048 100.007 255.239 99.9927C254.67 99.9857 254.107 99.8718 253.58 99.657C253.012 99.4439 252.482 99.1411 252.01 98.7602C251.548 98.3862 251.154 97.9335 250.849 97.4228C250.538 96.9111 250.377 96.3225 250.383 95.7236V57.9104C250.377 57.3115 250.538 56.7229 250.849 56.2112C251.15 55.7075 251.544 55.2661 252.01 54.9105C252.484 54.5478 253.014 54.2661 253.58 54.0766C254.125 53.8851 254.698 53.7824 255.275 53.7725C256.223 53.7714 257.157 53.9961 258.001 54.428Z" fill="white"/>
<path d="M300.033 55.2566C300.534 55.6416 300.935 56.1431 301.2 56.7177C301.466 57.2924 301.587 57.923 301.556 58.5554V95.5714C301.573 96.1975 301.439 96.8186 301.166 97.3818C300.892 97.9451 300.488 98.4341 299.986 98.8073C299.03 99.5921 297.836 100.027 296.601 100.04C296.067 100.033 295.537 99.9431 295.031 99.7723C294.478 99.5974 293.95 99.3506 293.461 99.0381C292.985 98.7393 292.579 98.3424 292.268 97.8738C291.958 97.4083 291.796 96.8599 291.802 96.3004V57.6166C291.796 57.0707 291.982 56.5399 292.326 56.1167C292.67 55.684 293.084 55.3117 293.55 55.0153C294.035 54.7049 294.564 54.4697 295.12 54.3178C295.604 54.1713 296.105 54.0919 296.611 54.0818C297.851 54.0787 299.056 54.4923 300.033 55.2566Z" fill="white"/>
<path d="M334.995 71.1742C334.687 70.9539 334.509 70.8228 334.472 70.7756C331.615 68.7369 328.444 67.1814 325.085 66.1709C321.743 65.1459 318.311 64.4434 314.835 64.073H312.978C312.975 65.5177 312.484 66.919 311.586 68.0484C311.135 68.5909 310.565 69.0207 309.92 69.3038C309.276 69.5869 308.574 69.7155 307.871 69.6795C307.308 69.6734 306.749 69.5851 306.212 69.4172C305.648 69.2385 305.118 68.9674 304.642 68.6148C304.172 68.2782 303.766 67.8588 303.444 67.3771C303.131 66.8922 302.97 66.3238 302.984 65.7461V57.7586C302.976 57.1603 303.136 56.5718 303.444 56.0594C303.758 55.5437 304.177 55.1005 304.674 54.7587C305.175 54.4059 305.722 54.1252 306.301 53.9248C306.833 53.7309 307.394 53.628 307.96 53.6207C310.964 53.6172 313.965 53.7923 316.949 54.1451C319.938 54.5026 322.898 55.0811 325.802 55.8758C328.113 56.5209 330.384 57.3001 332.604 58.2096C335.106 59.2127 337.496 60.4747 339.736 61.9752C341.886 63.406 343.782 65.1875 345.345 67.246C346.855 69.2238 347.66 71.6521 347.632 74.1426C347.657 75.712 347.141 77.2421 346.172 78.4746C345.209 79.7123 343.923 80.6582 342.457 81.207C342.19 81.2961 341.771 81.4325 341.196 81.6108C340.871 81.7224 340.539 81.8101 340.202 81.873H312.868V96.091C312.873 96.655 312.699 97.206 312.371 97.6644C312.024 98.145 311.598 98.5619 311.11 98.8969C310.609 99.2513 310.061 99.5337 309.482 99.736C308.979 99.9212 308.449 100.022 307.913 100.035C307.379 100.024 306.85 99.9341 306.343 99.7674C305.771 99.5906 305.232 99.3213 304.747 98.9703C304.275 98.6271 303.861 98.209 303.523 97.7326C303.186 97.2566 303.012 96.6846 303.026 96.1015V75.8366C303.038 75.3507 303.187 74.8782 303.455 74.473C303.745 73.9952 304.097 73.5579 304.501 73.1723C304.904 72.784 305.362 72.4587 305.862 72.2073C306.29 71.977 306.767 71.8512 307.253 71.8402H335.649C335.5 71.5596 335.273 71.3282 334.995 71.1742Z" fill="white"/>
<path d="M54.0589 20.5532C53.2788 19.8379 52.3813 19.2631 51.4061 18.854C50.4281 18.4371 49.3765 18.2213 48.3137 18.2194H24.0355C24.2402 17.8327 24.5412 17.5057 24.9093 17.2701C25.2149 17.0371 25.5347 16.8234 25.8668 16.6303C28.9124 14.5271 32.3097 12.9888 35.8973 12.0885C39.4686 11.1759 43.1086 10.5585 46.7806 10.2424C47.7538 10.148 48.816 10.0956 49.9619 10.0746C51.0478 10.0605 52.1282 9.91611 53.1798 9.64453C54.1187 9.41139 54.9718 8.91473 55.639 8.21278C56.2774 7.52575 56.5966 6.47684 56.5966 5.06605C56.6079 3.99046 56.272 2.94001 55.639 2.0714C55.0073 1.19082 54.1105 0.536449 53.0804 0.204346H49.7631C47.4489 0.206271 45.1365 0.330576 42.8354 0.57672C40.5461 0.822562 38.2743 1.21142 36.0333 1.74101C34.6154 2.05568 33.0457 2.48573 31.3242 3.0469C29.5457 3.61887 27.7991 4.28588 26.0918 5.04507C24.292 5.8325 22.5443 6.73466 20.8595 7.74601C19.217 8.72419 17.6915 9.88729 16.3125 11.2127C15.0289 12.4521 13.9545 13.892 13.1312 15.4765C12.3354 17.0191 11.9259 18.7327 11.9383 20.4693C11.9537 21.9593 12.391 23.4143 13.1992 24.6649C13.9647 25.9597 15.1647 26.9394 16.5846 27.4288C16.8188 27.542 17.0644 27.6299 17.3171 27.691L18.2066 27.9638L18.9758 28.1997C19.104 28.2399 19.2352 28.2697 19.3682 28.2889H44.583C44.1018 28.9536 43.4913 29.5138 42.7883 29.9357C42.0349 30.4025 41.3337 30.8168 40.6692 31.1786C38.7826 32.1936 36.8176 33.0547 34.7933 33.7537C32.7788 34.4495 30.7172 34.9999 28.6243 35.4005C26.5301 35.7918 24.4168 36.0719 22.2931 36.2396C20.1426 36.418 18.0078 36.5333 15.8887 36.57C14.7881 36.8685 13.7974 37.4806 13.037 38.3322C12.3169 39.218 11.9447 40.3372 11.9906 41.4789C11.9408 42.6213 12.3134 43.7418 13.037 44.6257C13.7956 45.4806 14.7867 46.0949 15.8887 46.3931H18.2799C23.9745 46.4069 29.6445 45.6429 35.1334 44.1222C36.4153 43.7656 37.8385 43.3145 39.4082 42.7586C41.031 42.1805 42.6161 41.5008 44.154 40.7237C45.7441 39.9204 47.2835 39.0201 48.7637 38.028C50.2036 37.0587 51.5382 35.9407 52.7455 34.6925C53.7593 33.6473 54.6238 32.4666 55.3146 31.1839C55.4036 31.0213 55.4821 30.8587 55.5606 30.6909C56.2615 29.249 56.6197 27.6639 56.607 26.06C56.6139 25.0073 56.3756 23.9675 55.9111 23.0234C55.4516 22.0922 54.8235 21.2546 54.0589 20.5532Z" fill="url(#paint0_linear_40_2566)"/>
<path d="M100.444 13.7353L100.365 13.6304C98.7977 11.5836 96.9023 9.81137 94.7563 8.38587C92.5151 6.88424 90.123 5.62216 87.6194 4.62029C85.4009 3.70736 83.1294 2.92975 80.8173 2.2917C77.9116 1.49324 74.9506 0.912983 71.9589 0.55576C68.9754 0.2028 65.9738 0.0276732 62.9696 0.0313054C62.404 0.0373113 61.8433 0.138363 61.311 0.330249C60.7321 0.533845 60.183 0.814301 59.6785 1.16413C59.1858 1.50957 58.7705 1.95437 58.4593 2.47002C58.149 2.98179 57.9877 3.57038 57.9936 4.16925V12.1777C57.9831 12.7574 58.1453 13.3271 58.4593 13.814C58.779 14.294 59.1833 14.7117 59.6523 15.0465C60.1271 15.4 60.6577 15.6712 61.222 15.8489C61.7583 16.0212 62.3175 16.1114 62.8807 16.1163C63.5843 16.1522 64.2865 16.023 64.9314 15.7389C65.5763 15.4548 66.1462 15.0237 66.5957 14.48C67.4937 13.3519 67.9859 11.9531 67.9927 10.5099H69.845C73.3292 10.86 76.7721 11.5431 80.1266 12.55C83.4867 13.5603 86.6579 15.1177 89.5135 17.16C89.5606 17.202 89.7385 17.3383 90.0367 17.5586C90.0943 17.6058 90.1571 17.6477 90.2094 17.7002C90.3927 17.8362 90.5386 18.0166 90.6332 18.2246H62.2371C61.7491 18.2354 61.2705 18.3611 60.8401 18.5918C60.3443 18.8463 59.8879 19.1713 59.4849 19.5568C59.0804 19.9441 58.7285 20.3832 58.4384 20.8627C58.1701 21.2676 58.0214 21.7403 58.0094 22.2262V42.4859C58.0033 43.0736 58.1868 43.6476 58.5326 44.1222C58.8711 44.5971 59.2847 45.0133 59.757 45.3547C60.2395 45.71 60.7793 45.9796 61.3529 46.1519C61.8591 46.3226 62.3885 46.4145 62.9226 46.4246C63.4589 46.4099 63.9891 46.3071 64.4923 46.1204C65.0709 45.92 65.6186 45.6393 66.1195 45.2865C66.6052 44.9487 67.0313 44.5322 67.3805 44.0541C67.7079 43.5954 67.8819 43.0446 67.8776 42.4807V28.2837H95.2115C95.5495 28.2237 95.882 28.136 96.2057 28.0215C96.7813 27.8431 97.1998 27.7068 97.4667 27.6176C98.9342 27.0703 100.221 26.1242 101.182 24.8852C102.149 23.652 102.663 22.122 102.636 20.5532C102.673 18.1008 101.903 15.7046 100.444 13.7353Z" fill="url(#paint1_linear_40_2566)"/>
<path d="M146.573 7.2008C146.487 6.85875 146.375 6.52387 146.238 6.19911C145.265 3.98241 143.906 2.46148 142.162 1.63634C140.233 0.772269 138.136 0.349461 136.024 0.39862C135.621 0.39862 135.224 0.398629 134.821 0.440585C133.345 0.522764 131.881 0.754714 130.452 1.13287C128.578 1.62848 126.754 2.29921 125.005 3.13628C123.238 3.98041 121.533 4.94961 119.903 6.03651C119.71 6.16762 119.506 6.29874 119.322 6.4351C117.955 7.36968 116.66 8.40763 115.45 9.53988C113.228 11.5857 111.186 13.8213 109.35 16.2214C107.549 18.5767 105.994 21.1109 104.708 23.7841C103.421 26.468 102.419 29.2806 101.721 32.1754C101.522 32.9988 101.354 33.8326 101.198 34.6717C100.824 36.8333 100.639 39.0233 100.643 41.217C100.608 42.5716 101.097 43.8872 102.009 44.8881C102.464 45.3883 103.023 45.7824 103.647 46.0424C104.271 46.3025 104.944 46.4223 105.619 46.3933C106.7 46.4041 107.757 46.0758 108.643 45.4545C109.549 44.8324 110.197 43.8998 110.464 42.8323C110.63 40.0552 111.012 37.2952 111.605 34.5774C111.975 32.8964 112.473 31.2464 113.096 29.6422C113.41 28.8346 113.759 28.0444 114.142 27.2717C115.277 24.9592 116.714 22.8091 118.417 20.8786C120.313 18.7523 122.434 16.8391 124.743 15.1725C126.274 14.0773 127.883 13.0957 129.557 12.2356C131.242 11.3419 133.072 10.7558 134.962 10.5049C135.098 10.5049 135.402 10.5049 135.862 10.5731C136.322 10.6412 136.626 10.6412 136.757 10.6412V18.2196H126.072C125.452 18.2084 124.842 18.3817 124.319 18.7178C123.812 19.053 123.374 19.482 123.027 19.9818C122.675 20.4908 122.405 21.0517 122.226 21.6443C122.06 22.1939 121.972 22.7641 121.965 23.3383C121.948 24.1574 122.105 24.9706 122.425 25.7246C122.435 25.7517 122.448 25.7781 122.462 25.8032C122.85 26.5691 123.464 27.1971 124.22 27.6021C124.309 27.6388 124.55 27.7647 124.947 27.964C125.173 28.0985 125.419 28.1976 125.675 28.2577H136.882V42.4809C136.876 43.0493 137.06 43.6035 137.406 44.0543C137.764 44.5239 138.189 44.939 138.667 45.2867C139.144 45.6444 139.673 45.9258 140.236 46.1206C140.74 46.3064 141.27 46.4091 141.806 46.4248C142.34 46.4147 142.869 46.3228 143.376 46.1521C143.95 45.9807 144.49 45.711 144.972 45.3549C145.445 45.0152 145.859 44.5987 146.196 44.1224C146.535 43.6457 146.709 43.0712 146.693 42.4861V8.27069C146.694 7.91063 146.653 7.55166 146.573 7.2008Z" fill="url(#paint2_linear_40_2566)"/>
<path d="M192.581 39.8952C192.411 39.418 192.19 38.9608 191.922 38.5317C191.871 38.4412 191.815 38.3536 191.754 38.2694C191.413 37.777 190.986 37.3506 190.493 37.0107C190.047 36.6907 189.514 36.5166 188.965 36.5125H158.377L158.183 36.1768C158.136 35.8202 158.115 35.5947 158.115 35.5108C158.115 34.0918 158.312 32.6796 158.701 31.3151C159.031 30.1693 159.469 29.0577 160.009 27.9954C161.287 25.4701 162.892 23.1248 164.781 21.0201C166.682 18.876 168.83 16.9659 171.18 15.3298C173.295 13.8311 175.591 12.608 178.014 11.69C179.618 11.1311 181.275 10.7392 182.958 10.5205C184.575 10.3265 186.271 10.1534 188.034 10.0223C188.39 9.97507 188.819 9.91215 189.331 9.81775C189.798 9.75072 190.242 9.57072 190.624 9.29329C191.29 8.77169 191.853 8.12949 192.283 7.4C192.652 6.66988 192.832 5.85821 192.806 5.03996C192.816 3.95645 192.488 2.89679 191.869 2.00861C191.256 1.10626 190.338 0.456295 189.284 0.178264H186.632C185.164 0.175975 183.697 0.268822 182.242 0.456224C180.222 0.699873 178.228 1.12106 176.282 1.71491C172.944 2.7272 169.752 4.17485 166.79 6.02068C165.597 6.76168 164.444 7.56703 163.337 8.43318C161.678 9.71128 160.117 11.1139 158.67 12.6288C156.226 15.1594 154.116 17.9935 152.391 21.0621C151.16 23.2736 150.14 25.5967 149.346 28.0006C148.548 30.3875 148.143 32.8886 148.147 35.4059C148.148 36.5261 148.271 37.6428 148.514 38.7362C148.747 39.8306 149.126 40.8888 149.639 41.8829C150.144 42.8527 150.819 43.7232 151.632 44.4527C152.495 45.2147 153.529 45.7547 154.646 46.0261C155.124 46.1891 155.612 46.3239 156.106 46.4299H188.95C189.52 46.4293 190.076 46.2556 190.545 45.9317C191.032 45.5952 191.459 45.1785 191.806 44.6992C192.155 44.2223 192.422 43.6906 192.596 43.1259C192.763 42.6175 192.855 42.0874 192.869 41.5525C192.867 40.9877 192.77 40.4273 192.581 39.8952Z" fill="url(#paint3_linear_40_2566)"/>
<path d="M238.626 39.8955C238.593 39.7895 238.553 39.686 238.505 39.5861C238.318 39.1219 238.079 38.6804 237.794 38.2697C237.454 37.7761 237.027 37.3495 236.533 37.011C236.088 36.69 235.554 36.5159 235.005 36.5128H204.422L204.223 36.1771V35.5006C204.221 34.7439 204.291 33.9887 204.432 33.2454C204.481 33.0041 204.533 32.7629 204.589 32.5216C204.833 31.556 205.131 30.6051 205.484 29.6739L206.08 28.2578H229.04C229.582 28.2625 230.11 28.0873 230.542 27.7596C231.001 27.4094 231.395 26.9795 231.703 26.4904C232.028 26.0039 232.283 25.4743 232.462 24.917C232.636 24.4106 232.726 23.8792 232.729 23.3437C232.725 22.7688 232.635 22.1979 232.462 21.6497C232.462 21.5815 232.42 21.5133 232.394 21.4504C232.228 20.9324 231.985 20.4425 231.672 19.9977C231.323 19.4977 230.883 19.0687 230.374 18.7337C229.872 18.405 229.284 18.2317 228.684 18.2355H213.641C213.98 17.7681 214.396 17.3619 214.871 17.0345C215.42 16.6307 215.834 16.3212 216.1 16.101C217.996 14.614 220.097 13.4109 222.337 12.5294C224.574 11.6545 226.881 10.9737 229.234 10.4945C230.271 10.3104 231.32 10.1982 232.373 10.1589C233.432 10.1236 234.483 9.97954 235.513 9.72884C236.431 9.51015 237.263 9.02273 237.904 8.32856C238.521 7.63627 238.83 6.56114 238.83 5.08218C238.835 3.99409 238.524 2.92798 237.935 2.01411C237.698 1.63743 237.399 1.30398 237.051 1.02814C236.538 0.628877 235.943 0.349368 235.308 0.209988H232.661C229.154 0.205671 225.666 0.723538 222.311 1.74664C218.973 2.75592 215.784 4.20375 212.825 6.05241C209.851 7.90504 207.119 10.1232 204.694 12.6553C204.254 13.1063 203.836 13.5626 203.433 14.0346C201.52 16.201 199.843 18.5657 198.431 21.0885C197.234 23.3143 196.223 25.635 195.406 28.0271C194.591 30.4105 194.176 32.9128 194.177 35.4324C194.177 36.1339 194.222 36.8346 194.313 37.5302C194.36 37.8763 194.412 38.2225 194.48 38.5791C194.671 39.5879 194.995 40.5667 195.443 41.4898C195.881 42.397 196.463 43.2276 197.164 43.9495C197.9 44.7062 198.779 45.3087 199.749 45.7222C200.169 45.9205 200.603 46.087 201.047 46.2204C201.466 46.3597 201.903 46.4391 202.344 46.4564H234.979C235.549 46.4581 236.106 46.2842 236.575 45.9582C237.063 45.6236 237.49 45.2066 237.836 44.7257C238.186 44.25 238.453 43.7179 238.626 43.1524C238.795 42.6446 238.887 42.1142 238.898 41.579C238.902 41.0065 238.81 40.4374 238.626 39.8955Z" fill="url(#paint4_linear_40_2566)"/>
<path d="M250.09 76.6755C249.634 75.7341 249.006 74.8871 248.237 74.1791C247.452 73.4639 246.552 72.8875 245.574 72.4746C244.6 72.0565 243.552 71.8423 242.492 71.8453H218.209C218.417 71.4458 218.728 71.1091 219.109 70.8698C219.419 70.6412 219.742 70.4311 220.077 70.2404C223.121 68.1447 226.514 66.6102 230.097 65.7092C233.67 64.8055 237.309 64.1899 240.98 63.8683C241.503 63.8211 242.089 63.7792 242.691 63.7529C243.157 63.7529 243.649 63.711 244.151 63.7057C245.237 63.6899 246.317 63.5438 247.369 63.2704C248.307 63.0349 249.159 62.5386 249.828 61.8387C250.189 61.4357 250.444 60.9491 250.571 60.4227C250.724 59.8571 250.796 59.2726 250.786 58.6867C250.797 57.6111 250.461 56.5607 249.828 55.6921C249.195 54.8123 248.299 54.1581 247.269 53.825H243.952C241.638 53.8217 239.325 53.946 237.024 54.1974C234.735 54.4398 232.463 54.8287 230.222 55.3617C228.804 55.6711 227.235 56.1064 225.513 56.6571C223.737 57.2369 221.99 57.9055 220.281 58.6605C218.48 59.4468 216.733 60.349 215.048 61.3614C213.405 62.3355 211.879 63.4971 210.501 64.8228C209.213 66.0599 208.138 67.5025 207.32 69.0919C206.525 70.6366 206.116 72.3517 206.127 74.0899C206.14 75.5705 206.578 77.0161 207.388 78.2541C207.456 78.359 207.514 78.4587 207.587 78.5583C208.349 79.7098 209.469 80.5765 210.774 81.0232C211.004 81.137 211.246 81.2266 211.496 81.2907C211.804 81.3799 212.108 81.4638 212.396 81.5582L213.154 81.7889C213.285 81.835 213.42 81.8683 213.557 81.8886H238.762C238.634 82.0727 238.494 82.2479 238.343 82.413C237.946 82.8446 237.49 83.2172 236.988 83.5196C236.234 83.9917 235.523 84.4007 234.858 84.7574C232.972 85.7846 231.003 86.6513 228.972 87.3482C226.956 88.0398 224.895 88.5883 222.803 88.9897C221.939 89.1575 221.081 89.2991 220.218 89.4198C218.973 89.6086 217.706 89.7607 216.44 89.8603C214.295 90.0386 212.162 90.1505 210.041 90.196C208.938 90.4932 207.946 91.1054 207.184 91.9581C206.509 92.7791 206.139 93.8099 206.138 94.8741C206.138 94.9528 206.138 95.0367 206.138 95.1153C206.095 96.2566 206.467 97.3746 207.184 98.2621C207.944 99.1166 208.937 99.7293 210.041 100.024H212.432C218.123 100.035 223.789 99.2732 229.275 97.7586C230.557 97.402 231.991 96.9457 233.561 96.3898C235.182 95.8144 236.765 95.1365 238.301 94.3601C239.893 93.5559 241.435 92.6538 242.916 91.6592C244.356 90.6914 245.689 89.5733 246.893 88.3237C248.034 87.146 248.985 85.7978 249.713 84.3273C250.413 82.8852 250.771 81.3002 250.759 79.6964C250.761 79.0195 250.662 78.3461 250.466 77.6982C250.368 77.348 250.242 77.006 250.09 76.6755Z" fill="url(#paint5_linear_40_2566)"/>
<path d="M291.849 56.3896C291.616 55.9537 291.328 55.55 290.991 55.1887C290.654 54.8256 290.276 54.5019 289.866 54.2236C289.516 53.9723 289.099 53.8317 288.668 53.8198H285.884C285.461 53.8432 285.056 53.997 284.723 54.2604C284.283 54.5668 283.891 54.9381 283.561 55.3617C283.22 55.7899 282.92 56.2501 282.667 56.7358C282.444 57.112 282.317 57.5368 282.295 57.9735V71.8453H262.067V57.5749C261.941 57.2122 261.783 56.8612 261.596 56.526C261.51 56.3178 261.412 56.1147 261.303 55.9176C260.954 55.2852 260.421 54.7747 259.775 54.4544C258.939 54.0458 258.02 53.8375 257.091 53.846C256.514 53.8521 255.943 53.9549 255.401 54.1502C254.825 54.3386 254.284 54.6203 253.8 54.9841C253.335 55.3415 252.941 55.7826 252.638 56.2848C252.329 56.797 252.17 57.3856 252.178 57.984V95.7972C252.17 96.3956 252.329 96.9842 252.638 97.4964C252.946 98.0044 253.339 98.4551 253.8 98.8285C254.002 98.9895 254.213 99.1383 254.433 99.2743C254.727 99.4566 255.039 99.6094 255.364 99.7306C255.891 99.9459 256.454 100.06 257.023 100.066C257.83 100.083 258.632 99.9239 259.372 99.5995C260.126 99.2327 260.778 98.6829 261.266 97.9999C261.462 97.7206 261.629 97.4219 261.763 97.1083C261.899 96.8666 262.001 96.6072 262.067 96.3374V82.046H282.295V96.0122C282.431 96.4056 282.52 96.6468 282.567 96.7412C282.987 97.6757 283.611 98.5038 284.393 99.1642C285.195 99.7932 286.196 100.113 287.214 100.066C287.776 100.058 288.335 99.9678 288.872 99.7988C289.447 99.6235 289.993 99.3656 290.494 99.0331C290.984 98.7132 291.402 98.2932 291.719 97.8006C292.032 97.3017 292.196 96.7226 292.189 96.1328V57.5802C292.177 57.1611 292.06 56.7517 291.849 56.3896Z" fill="url(#paint6_linear_40_2566)"/>
<path d="M303.178 57.3281C302.979 56.4885 302.492 55.7458 301.802 55.2303C300.814 54.468 299.6 54.0598 298.353 54.0713C297.849 54.0796 297.347 54.1554 296.862 54.2968C296.307 54.4536 295.778 54.6922 295.293 55.0048C294.823 55.2961 294.406 55.667 294.063 56.1009C293.731 56.5292 293.555 57.0586 293.566 57.6009V96.2846C293.56 96.8441 293.722 97.3925 294.032 97.858C294.344 98.3254 294.75 98.7221 295.225 99.0223C295.714 99.3338 296.242 99.5806 296.794 99.7565C297.301 99.9248 297.83 100.015 298.364 100.024C299.599 100.011 300.792 99.5745 301.744 98.7863C302.252 98.4183 302.664 97.9319 302.942 97.3691C303.221 96.8063 303.36 96.1839 303.345 95.5557V58.5449C303.347 58.1334 303.29 57.7238 303.178 57.3281Z" fill="url(#paint7_linear_40_2566)"/>
<path d="M347.082 67.2508C345.637 65.3449 343.902 63.6794 341.939 62.3157C341.787 62.2003 341.63 62.1007 341.478 61.9905C339.241 60.4833 336.851 59.2192 334.347 58.2197C332.126 57.3102 329.855 56.5309 327.545 55.8859C324.639 55.0887 321.678 54.5101 318.686 54.1552C316.661 53.9139 314.647 53.7618 312.611 53.6779C311.643 53.6465 310.675 53.6255 309.707 53.6255C309.142 53.633 308.582 53.7321 308.049 53.9192C307.472 54.1236 306.927 54.4059 306.427 54.7583C305.93 55.0999 305.511 55.5432 305.197 56.059C305.084 56.2505 304.989 56.4525 304.915 56.6621C304.792 57.0144 304.73 57.3851 304.731 57.7582V65.7719C304.721 66.3516 304.883 66.9213 305.197 67.4082C305.52 67.8858 305.924 68.3029 306.39 68.6406C306.867 68.9912 307.397 69.2622 307.96 69.443C308.497 69.6121 309.056 69.7022 309.618 69.7105C310.323 69.7468 311.026 69.6178 311.672 69.3337C312.318 69.0496 312.888 68.6183 313.339 68.0742C314.232 66.944 314.722 65.5462 314.73 64.1041H316.588C320.062 64.4647 323.495 65.1566 326.838 66.1704C327.927 66.4994 328.998 66.8863 330.046 67.3295C332.228 68.2436 334.304 69.3956 336.236 70.7647C336.4 70.9112 336.575 71.0462 336.759 71.1685C337.015 71.3309 337.222 71.5614 337.355 71.8346H308.954C308.47 71.8464 307.996 71.9703 307.567 72.1964C307.067 72.4514 306.607 72.7783 306.202 73.1667C305.802 73.5544 305.45 73.9894 305.155 74.4621C304.888 74.8695 304.739 75.3435 304.726 75.8309V96.0958C304.722 96.6817 304.905 97.2535 305.249 97.7269C305.59 98.2019 306.005 98.6182 306.479 98.9594C306.953 99.3139 307.484 99.5852 308.049 99.7618C308.557 99.9248 309.085 100.015 309.618 100.029C310.155 100.017 310.685 99.9163 311.188 99.7303C311.768 99.5303 312.316 99.2477 312.815 98.8912C313.303 98.5581 313.73 98.1429 314.076 97.664C314.414 97.209 314.597 96.6576 314.6 96.0906V81.8779H341.934C342.273 81.8181 342.608 81.7304 342.933 81.6156C343.509 81.4373 343.927 81.301 344.189 81.2118C345.658 80.6646 346.946 79.7185 347.909 78.4794C348.876 77.2454 349.391 75.7163 349.369 74.1474C349.396 71.6572 348.591 69.2294 347.082 67.2508Z" fill="url(#paint8_linear_40_2566)"/>
<g style="mix-blend-mode:soft-light">
<path d="M16.0142 46.4196L55.325 31.2104C54.6342 32.4932 53.7696 33.6739 52.7559 34.7191C51.5485 35.9673 50.214 37.0852 48.7741 38.0546C47.2939 39.0467 45.7544 39.947 44.1643 40.7503C42.6264 41.5274 41.0414 42.207 39.4186 42.7852C37.8489 43.3411 36.4257 43.7921 35.1437 44.1488C29.6549 45.6695 23.9849 46.4335 18.2902 46.4196H16.0142Z" fill="#BBC5E3"/>
<path d="M102.647 20.5272C102.674 22.0959 102.16 23.6259 101.192 24.8592C100.231 26.0981 98.945 27.0443 97.4775 27.5916C97.2106 27.6807 96.7921 27.8171 96.2165 27.9954C95.8928 28.1099 95.5603 28.1976 95.2223 28.2576H67.8884V42.4809C67.8927 43.0448 67.7187 43.5956 67.3913 44.0542C67.0421 44.5323 66.616 44.9489 66.1303 45.2867C65.6294 45.6394 65.0817 45.9201 64.5031 46.1206C63.9999 46.3073 63.4696 46.41 62.9333 46.4248C62.3993 46.4147 61.8699 46.3227 61.3636 46.152C60.7901 45.9798 60.2503 45.7101 59.7678 45.3549C59.2955 45.0135 58.8819 44.5972 58.5434 44.1224C58.1976 43.6477 58.0141 43.0738 58.0202 42.4861V30.1614L88.8912 18.2248L90.2463 17.7004L100.47 13.7407C101.917 15.7034 102.682 18.0873 102.647 20.5272Z" fill="#BBC5E3"/>
<path d="M146.766 8.26544V15.4452L122.42 25.7246C122.1 24.9706 121.943 24.1574 121.959 23.3383C121.967 22.7641 122.055 22.1939 122.221 21.6443C122.4 21.0517 122.67 20.4908 123.022 19.9818C123.368 19.482 123.807 19.053 124.314 18.7178C124.836 18.3817 125.446 18.2084 126.067 18.2196H136.751V10.6412C136.621 10.6412 136.322 10.6412 135.857 10.5731C135.391 10.5049 135.093 10.5049 134.957 10.5049C133.069 10.7564 131.24 11.3425 129.557 12.2356C127.883 13.0957 126.274 14.0773 124.743 15.1725C122.43 16.845 120.305 18.7654 118.407 20.8996C116.704 22.83 115.266 24.9801 114.132 27.2927C113.755 28.0654 113.406 28.8556 113.085 29.6632L101.203 34.6823C101.344 33.8431 101.511 33.0092 101.726 32.1858C102.424 29.2911 103.426 26.4784 104.714 23.7946C105.996 21.1179 107.55 18.5803 109.349 16.2214C111.179 13.8222 113.214 11.5866 115.429 9.53988C116.639 8.40763 117.934 7.36968 119.301 6.4351L134.8 0.440585C135.203 0.409118 135.6 0.39862 136.003 0.39862C138.115 0.349461 140.212 0.772269 142.141 1.63634C143.885 2.45799 145.244 3.97891 146.217 6.19911C146.354 6.52387 146.466 6.85875 146.552 7.2008C146.664 7.54623 146.736 7.90347 146.766 8.26544Z" fill="#BBC5E3"/>
<path d="M182.252 0.487549L163.348 8.4645C164.454 7.59835 165.607 6.793 166.801 6.05201C169.763 4.20618 172.954 2.75853 176.293 1.74624C178.238 1.15238 180.233 0.731197 182.252 0.487549Z" fill="#BBC5E3"/>
<path d="M250.786 58.7024C250.796 59.2883 250.724 59.8728 250.571 60.4384L242.691 63.7687C242.089 63.7687 241.524 63.8369 240.98 63.8841C237.309 64.2057 233.67 64.8213 230.097 65.7249C226.516 66.6211 223.122 68.1502 220.077 70.2404C219.746 70.4331 219.426 70.645 219.119 70.875C218.738 71.1143 218.428 71.451 218.219 71.8505H223.509L207.608 78.5583C207.535 78.4587 207.477 78.359 207.409 78.2541C206.599 77.0161 206.161 75.5705 206.148 74.0899C206.136 72.3517 206.546 70.6366 207.341 69.0919C208.159 67.5025 209.234 66.0599 210.522 64.8228C211.9 63.4971 213.426 62.3355 215.069 61.3614C216.754 60.349 218.501 59.4468 220.302 58.6605C222.011 57.9055 223.758 57.2369 225.534 56.6571C227.261 56.1064 228.831 55.6711 230.243 55.3617C232.484 54.8287 234.756 54.4398 237.045 54.1974C239.346 53.946 241.659 53.8217 243.973 53.825H247.285C248.315 54.1581 249.211 54.8123 249.844 55.6921C250.474 56.5669 250.805 57.6233 250.786 58.7024Z" fill="#BBC5E3"/>
<path d="M141.858 46.4194C141.322 46.4038 140.792 46.301 140.288 46.1152C139.725 45.9204 139.196 45.6391 138.719 45.2814C138.241 44.9337 137.816 44.5185 137.457 44.0489C137.112 43.5981 136.928 43.044 136.934 42.4755V39.7746L146.818 35.946V42.4755C146.835 43.0606 146.66 43.6351 146.321 44.1118C145.984 44.5881 145.57 45.0046 145.097 45.3443C144.615 45.7004 144.075 45.9701 143.501 46.1414C142.972 46.3215 142.417 46.4153 141.858 46.4194Z" fill="#BBC5E3"/>
<path d="M261.303 55.8912L252.178 59.7512V57.968C252.17 57.3696 252.329 56.781 252.638 56.2688C252.941 55.7666 253.335 55.3255 253.8 54.9682C254.284 54.6044 254.825 54.3227 255.401 54.1343C255.943 53.939 256.514 53.8361 257.091 53.8301C258.02 53.8216 258.939 54.0298 259.775 54.4385C260.42 54.756 260.952 55.2627 261.303 55.8912Z" fill="#BBC5E3"/>
<path d="M191.754 38.2484C191.815 38.3326 191.871 38.4202 191.921 38.5107L173.231 46.3775H156.122C155.628 46.2715 155.14 46.1366 154.662 45.9737C153.545 45.7022 152.51 45.1622 151.648 44.4003C150.835 43.6708 150.159 42.8002 149.654 41.8305C149.141 40.8363 148.763 39.7781 148.529 38.6837C148.286 37.5904 148.164 36.4736 148.163 35.3535L158.701 31.2732C158.312 32.6377 158.115 34.0498 158.115 35.4688C158.115 35.5527 158.115 35.7783 158.183 36.1349L158.377 36.4705H188.965C189.514 36.4747 190.047 36.6487 190.493 36.9688C190.988 37.3148 191.415 37.7485 191.754 38.2484Z" fill="#BBC5E3"/>
<path d="M238.856 5.06648C238.856 6.54544 238.547 7.62057 237.93 8.31286C237.289 9.00703 236.457 9.49445 235.539 9.71314C234.51 9.96384 233.458 10.108 232.399 10.1432C231.346 10.1825 230.297 10.2947 229.26 10.4788C226.907 10.958 224.6 11.6388 222.363 12.5137C220.123 13.3952 218.022 14.5983 216.127 16.0853C215.86 16.3055 215.446 16.6097 214.897 17.0188C214.422 17.3462 214.006 17.7524 213.667 18.2198H228.731C229.331 18.216 229.919 18.3893 230.421 18.718C230.93 19.0531 231.37 19.482 231.719 19.982C232.032 20.4268 232.275 20.9167 232.441 21.4347L216.278 28.2526H206.107L205.51 29.6687C205.158 30.5999 204.859 31.5508 204.615 32.5164C204.556 32.7577 204.504 32.9989 204.458 33.2402L194.365 37.504C194.275 36.8084 194.229 36.1077 194.229 35.4062C194.228 32.8866 194.643 30.3843 195.459 28.0009C196.275 25.6088 197.287 23.2882 198.483 21.0624C199.895 18.5395 201.572 16.1749 203.485 14.0084L237.103 1.00195C237.452 1.2778 237.751 1.61123 237.987 1.98791C238.569 2.90763 238.871 3.97748 238.856 5.06648Z" fill="#BBC5E3"/>
<path d="M250.786 79.712C250.798 81.3159 250.44 82.9009 249.74 84.343C249.012 85.8135 248.06 87.1617 246.919 88.3393C245.715 89.589 244.382 90.7071 242.943 91.6749C241.461 92.6695 239.92 93.5715 238.328 94.3758C236.792 95.1521 235.209 95.8301 233.587 96.4054C232.018 96.9614 230.584 97.4176 229.302 97.7743C223.816 99.2888 218.15 100.051 212.459 100.04H210.068C208.964 99.745 207.971 99.1323 207.211 98.2778C206.494 97.3903 206.122 96.2723 206.164 95.131C206.164 95.0524 206.164 94.9684 206.164 94.8898L220.25 89.4354C221.113 89.3148 221.971 89.1732 222.835 89.0054C224.917 88.5974 226.968 88.0437 228.972 87.3481C230.996 86.6518 232.958 85.787 234.838 84.7625C235.502 84.4059 236.214 83.9968 236.967 83.5248C237.469 83.2224 237.926 82.8498 238.323 82.4182L250.462 77.7244C250.667 78.3673 250.776 79.0371 250.786 79.712Z" fill="#BBC5E3"/>
<path d="M282.295 65.4101L292.189 61.5815V83.3097L282.295 87.5053V82.0405H262.067V96.0435L254.433 99.2689C254.213 99.1329 254.002 98.984 253.8 98.8231C253.339 98.4496 252.946 97.9989 252.638 97.491C252.329 96.9788 252.17 96.3901 252.178 95.7917V77.0582L265.667 71.8399H282.295V65.4101Z" fill="#BBC5E3"/>
<path d="M303.178 57.3281C303.288 57.7294 303.341 58.1444 303.335 58.5606V78.6315L293.576 82.7537V61.0675L303.178 57.3281Z" fill="#BBC5E3"/>
<path d="M308.965 71.8452H319.362L304.711 78.0233V75.8416C304.724 75.3542 304.873 74.8802 305.14 74.4727C305.435 74.0001 305.787 73.5651 306.186 73.1773C306.592 72.7889 307.052 72.4621 307.552 72.2071C307.988 71.977 308.472 71.853 308.965 71.8452Z" fill="#BBC5E3"/>
<path d="M341.939 62.3157L330.056 67.3295C329.008 66.8864 327.937 66.4995 326.848 66.1705C323.505 65.1567 320.073 64.4647 316.598 64.1041H314.741C314.733 65.5462 314.243 66.944 313.349 68.0743C312.899 68.6184 312.328 69.0497 311.682 69.3337C311.036 69.6178 310.333 69.7468 309.629 69.7106C309.066 69.7022 308.507 69.6121 307.97 69.4431C307.407 69.2623 306.877 68.9913 306.4 68.6407C305.934 68.303 305.53 67.8858 305.207 67.4082C304.893 66.9213 304.731 66.3516 304.742 65.7719V57.7582C304.74 57.3851 304.802 57.0145 304.925 56.6621L312.622 53.678C314.657 53.7619 316.672 53.914 318.696 54.1552C321.688 54.5102 324.649 55.0887 327.555 55.8859C329.865 56.531 332.137 57.3102 334.357 58.2198C336.854 59.2206 339.237 60.4846 341.468 61.9906C341.63 62.1007 341.787 62.2004 341.939 62.3157Z" fill="#BBC5E3"/>
<path d="M238.914 41.5003C238.902 42.0355 238.811 42.5659 238.642 43.0737C238.469 43.6392 238.202 44.1713 237.851 44.647C237.505 45.1279 237.079 45.5449 236.59 45.8795C236.122 46.2055 235.565 46.3794 234.995 46.3777H220.867L238.511 39.5598C238.559 39.6598 238.599 39.7632 238.631 39.8692C238.813 40.3939 238.909 40.9448 238.914 41.5003Z" fill="#BBC5E3"/>
</g>
</g>
<defs>
<linearGradient id="paint0_linear_40_2566" x1="34.2805" y1="46.4193" x2="34.2805" y2="0.193856" gradientUnits="userSpaceOnUse">
<stop stop-color="#AEA9ED"/>
<stop offset="1" stop-color="#EAE1F9"/>
</linearGradient>
<linearGradient id="paint1_linear_40_2566" x1="80.3254" y1="46.4193" x2="80.3254" y2="-0.000161681" gradientUnits="userSpaceOnUse">
<stop stop-color="#AEA9ED"/>
<stop offset="1" stop-color="#EAE1F9"/>
</linearGradient>
<linearGradient id="paint2_linear_40_2566" x1="123.712" y1="46.4195" x2="123.712" y2="0.398621" gradientUnits="userSpaceOnUse">
<stop stop-color="#AEA9ED"/>
<stop offset="1" stop-color="#EAE1F9"/>
</linearGradient>
<linearGradient id="paint3_linear_40_2566" x1="170.521" y1="46.4195" x2="170.521" y2="0.193999" gradientUnits="userSpaceOnUse">
<stop stop-color="#AEA9ED"/>
<stop offset="1" stop-color="#EAE1F9"/>
</linearGradient>
<linearGradient id="paint4_linear_40_2566" x1="216.561" y1="46.4197" x2="216.561" y2="0.194253" gradientUnits="userSpaceOnUse">
<stop stop-color="#AEA9ED"/>
<stop offset="1" stop-color="#EAE1F9"/>
</linearGradient>
<linearGradient id="paint5_linear_40_2566" x1="228.459" y1="100.04" x2="228.459" y2="53.8198" gradientUnits="userSpaceOnUse">
<stop stop-color="#AEA9ED"/>
<stop offset="1" stop-color="#EAE1F9"/>
</linearGradient>
<linearGradient id="paint6_linear_40_2566" x1="272.181" y1="100.04" x2="272.181" y2="53.8198" gradientUnits="userSpaceOnUse">
<stop stop-color="#AEA9ED"/>
<stop offset="1" stop-color="#EAE1F9"/>
</linearGradient>
<linearGradient id="paint7_linear_40_2566" x1="298.453" y1="100.04" x2="298.453" y2="54.0923" gradientUnits="userSpaceOnUse">
<stop stop-color="#AEA9ED"/>
<stop offset="1" stop-color="#EAE1F9"/>
</linearGradient>
<linearGradient id="paint8_linear_40_2566" x1="327.047" y1="100.04" x2="327.047" y2="53.6255" gradientUnits="userSpaceOnUse">
<stop stop-color="#AEA9ED"/>
<stop offset="1" stop-color="#EAE1F9"/>
</linearGradient>
<clipPath id="clip0_40_2566">
<rect width="349.502" height="100.04" fill="white"/>
</clipPath>
</defs>
</svg>
