<svg width="311" height="80" viewBox="0 0 311 80" fill="none" xmlns="http://www.w3.org/2000/svg">
<path style="mix-blend-mode:multiply" d="M163.197 12.9734L156.627 7.71045L0 9.4461V71.1538L287.549 70.2579L307.919 55.9088V12.9734H259.918L252.046 12.6135L204.288 11.6537" fill="url(#paint0_linear_83_73209)" fill-opacity="0.2"/>
<path d="M311 0H233.512L225.796 11.3497H166.123L158.241 5.9908H0V79.984H49.8475L58.8956 73.6813H288.559L310.913 58.4843V13.9252H310.99L311 0ZM306.743 56.8846L287.063 70.2579H36.2023L4.01385 70.098V9.43011H156.725L164.606 14.789H306.724L306.743 56.8846Z" fill="url(#paint1_linear_83_73209)"/>
<defs>
<linearGradient id="paint0_linear_83_73209" x1="-26.3864" y1="43.3673" x2="342.767" y2="32.1166" gradientUnits="userSpaceOnUse">
<stop stop-color="#8423F6"/>
<stop offset="0.02" stop-color="#8A24F6"/>
<stop offset="0.16" stop-color="#B32AF7"/>
<stop offset="0.28" stop-color="#D02FF8"/>
<stop offset="0.39" stop-color="#E232F8"/>
<stop offset="0.47" stop-color="#E833F8"/>
<stop offset="1" stop-color="#4710B1"/>
</linearGradient>
<linearGradient id="paint1_linear_83_73209" x1="-51.7426" y1="80.9598" x2="326.335" y2="-36.1588" gradientUnits="userSpaceOnUse">
<stop stop-color="#8423F6"/>
<stop offset="0.08" stop-color="#761FE6"/>
<stop offset="0.25" stop-color="#5C17C9"/>
<stop offset="0.39" stop-color="#4D12B7"/>
<stop offset="0.5" stop-color="#4710B1"/>
<stop offset="0.61" stop-color="#4E12B9"/>
<stop offset="0.77" stop-color="#6018CD"/>
<stop offset="0.96" stop-color="#7E21EF"/>
<stop offset="1" stop-color="#8423F6"/>
</linearGradient>
</defs>
</svg>
